<mxfile host="app.diagrams.net" agent="Mozilla/5.0 (Windows NT 10.0; Win64; x64) AppleWebKit/537.36 (KHTML, like Gecko) Chrome/129.0.0.0 Safari/537.36" version="24.7.16" pages="5">
  <diagram name="Page-1" id="f-1p8PWjOPUTuqA6Hc5-">
    <mxGraphModel dx="1036" dy="508" grid="1" gridSize="10" guides="1" tooltips="1" connect="1" arrows="1" fold="1" page="1" pageScale="1" pageWidth="827" pageHeight="1169" math="1" shadow="0">
      <root>
        <mxCell id="0" />
        <mxCell id="1" parent="0" />
        <mxCell id="xeQ2HWB6W7-8EVr-I2a5-7" value="" style="edgeStyle=orthogonalEdgeStyle;rounded=0;orthogonalLoop=1;jettySize=auto;html=1;" edge="1" parent="1" source="xeQ2HWB6W7-8EVr-I2a5-2" target="xeQ2HWB6W7-8EVr-I2a5-4">
          <mxGeometry relative="1" as="geometry" />
        </mxCell>
        <mxCell id="xeQ2HWB6W7-8EVr-I2a5-2" value="$$Başlanğıc$$" style="ellipse;whiteSpace=wrap;html=1;" vertex="1" parent="1">
          <mxGeometry x="340" y="10" width="120" height="80" as="geometry" />
        </mxCell>
        <mxCell id="xeQ2HWB6W7-8EVr-I2a5-10" value="" style="edgeStyle=orthogonalEdgeStyle;rounded=0;orthogonalLoop=1;jettySize=auto;html=1;" edge="1" parent="1" source="xeQ2HWB6W7-8EVr-I2a5-3" target="xeQ2HWB6W7-8EVr-I2a5-6">
          <mxGeometry relative="1" as="geometry" />
        </mxCell>
        <mxCell id="xeQ2HWB6W7-8EVr-I2a5-3" value="$$S$$" style="shape=document;whiteSpace=wrap;html=1;boundedLbl=1;" vertex="1" parent="1">
          <mxGeometry x="340" y="350" width="120" height="80" as="geometry" />
        </mxCell>
        <mxCell id="xeQ2HWB6W7-8EVr-I2a5-8" value="" style="edgeStyle=orthogonalEdgeStyle;rounded=0;orthogonalLoop=1;jettySize=auto;html=1;" edge="1" parent="1" source="xeQ2HWB6W7-8EVr-I2a5-4" target="xeQ2HWB6W7-8EVr-I2a5-5">
          <mxGeometry relative="1" as="geometry" />
        </mxCell>
        <mxCell id="xeQ2HWB6W7-8EVr-I2a5-4" value="$$a,b,c$$" style="shape=parallelogram;perimeter=parallelogramPerimeter;whiteSpace=wrap;html=1;fixedSize=1;" vertex="1" parent="1">
          <mxGeometry x="305" y="110" width="190" height="80" as="geometry" />
        </mxCell>
        <mxCell id="xeQ2HWB6W7-8EVr-I2a5-9" value="" style="edgeStyle=orthogonalEdgeStyle;rounded=0;orthogonalLoop=1;jettySize=auto;html=1;" edge="1" parent="1" source="xeQ2HWB6W7-8EVr-I2a5-5" target="xeQ2HWB6W7-8EVr-I2a5-3">
          <mxGeometry relative="1" as="geometry" />
        </mxCell>
        <mxCell id="xeQ2HWB6W7-8EVr-I2a5-5" value="p = (a+b+c)/2&lt;br&gt;$$S =\sqrt{p(p-a)(p-b)(p-c)}$$" style="rounded=0;whiteSpace=wrap;html=1;" vertex="1" parent="1">
          <mxGeometry x="292.5" y="220" width="215" height="90" as="geometry" />
        </mxCell>
        <mxCell id="xeQ2HWB6W7-8EVr-I2a5-6" value="$$Son$$" style="ellipse;whiteSpace=wrap;html=1;" vertex="1" parent="1">
          <mxGeometry x="340" y="460" width="120" height="80" as="geometry" />
        </mxCell>
      </root>
    </mxGraphModel>
  </diagram>
  <diagram id="wKEj7adlJ5eF73acT9g5" name="Page-2">
    <mxGraphModel dx="863" dy="423" grid="1" gridSize="10" guides="1" tooltips="1" connect="1" arrows="1" fold="1" page="1" pageScale="1" pageWidth="827" pageHeight="1169" math="1" shadow="0">
      <root>
        <mxCell id="0" />
        <mxCell id="1" parent="0" />
        <mxCell id="uj5HeXA1J-pURMFWu_p6-12" style="edgeStyle=orthogonalEdgeStyle;rounded=0;orthogonalLoop=1;jettySize=auto;html=1;" edge="1" parent="1" source="mfDMkztym41JSoSUQh5K-1">
          <mxGeometry relative="1" as="geometry">
            <mxPoint x="400" y="840" as="targetPoint" />
          </mxGeometry>
        </mxCell>
        <mxCell id="mfDMkztym41JSoSUQh5K-1" value="operator" style="rounded=0;whiteSpace=wrap;html=1;fontStyle=2" vertex="1" parent="1">
          <mxGeometry x="340" y="730" width="120" height="60" as="geometry" />
        </mxCell>
        <mxCell id="uj5HeXA1J-pURMFWu_p6-1" value="" style="edgeStyle=orthogonalEdgeStyle;rounded=0;orthogonalLoop=1;jettySize=auto;html=1;" edge="1" parent="1" source="mfDMkztym41JSoSUQh5K-3" target="mfDMkztym41JSoSUQh5K-1">
          <mxGeometry relative="1" as="geometry" />
        </mxCell>
        <mxCell id="mfDMkztym41JSoSUQh5K-3" value="&lt;p class=&quot;MsoNormal&quot;&gt;&lt;span style=&quot;font-size:10.0pt;mso-bidi-font-size:&lt;br/&gt;11.0pt;line-height:115%;font-family:&amp;quot;Times New Roman&amp;quot;,serif;mso-ansi-language:&lt;br/&gt;AZ-LATIN&quot; lang=&quot;AZ-LATIN&quot;&gt;&lt;i&gt;Şərt&lt;/i&gt;&lt;/span&gt;&lt;span style=&quot;font-size:10.0pt;mso-bidi-font-size:&lt;br/&gt;11.0pt;line-height:115%;font-family:&amp;quot;Arial&amp;quot;,sans-serif;mso-ansi-language:AZ-LATIN&quot; lang=&quot;AZ-LATIN&quot;&gt;&lt;/span&gt;&lt;/p&gt;" style="rhombus;whiteSpace=wrap;html=1;" vertex="1" parent="1">
          <mxGeometry x="320" y="600" width="160" height="80" as="geometry" />
        </mxCell>
        <mxCell id="uj5HeXA1J-pURMFWu_p6-8" value="Hə" style="text;html=1;align=center;verticalAlign=middle;whiteSpace=wrap;rounded=0;fontStyle=2" vertex="1" parent="1">
          <mxGeometry x="300" y="680" width="60" height="30" as="geometry" />
        </mxCell>
        <mxCell id="uj5HeXA1J-pURMFWu_p6-9" value="Yox" style="text;html=1;align=center;verticalAlign=middle;whiteSpace=wrap;rounded=0;fontStyle=2" vertex="1" parent="1">
          <mxGeometry x="470" y="600" width="60" height="30" as="geometry" />
        </mxCell>
        <mxCell id="uj5HeXA1J-pURMFWu_p6-10" value="" style="endArrow=classic;html=1;rounded=0;entryX=0.5;entryY=0;entryDx=0;entryDy=0;" edge="1" parent="1" target="mfDMkztym41JSoSUQh5K-3">
          <mxGeometry width="50" height="50" relative="1" as="geometry">
            <mxPoint x="400" y="560" as="sourcePoint" />
            <mxPoint x="440" y="530" as="targetPoint" />
          </mxGeometry>
        </mxCell>
        <mxCell id="uj5HeXA1J-pURMFWu_p6-13" value="" style="endArrow=none;html=1;rounded=0;" edge="1" parent="1">
          <mxGeometry width="50" height="50" relative="1" as="geometry">
            <mxPoint x="520" y="820" as="sourcePoint" />
            <mxPoint x="520" y="640" as="targetPoint" />
          </mxGeometry>
        </mxCell>
        <mxCell id="uj5HeXA1J-pURMFWu_p6-14" value="" style="endArrow=classic;html=1;rounded=0;" edge="1" parent="1">
          <mxGeometry width="50" height="50" relative="1" as="geometry">
            <mxPoint x="520" y="820" as="sourcePoint" />
            <mxPoint x="400" y="820" as="targetPoint" />
          </mxGeometry>
        </mxCell>
        <mxCell id="uj5HeXA1J-pURMFWu_p6-15" value="" style="endArrow=none;html=1;rounded=0;exitX=1;exitY=0.5;exitDx=0;exitDy=0;" edge="1" parent="1" source="mfDMkztym41JSoSUQh5K-3">
          <mxGeometry width="50" height="50" relative="1" as="geometry">
            <mxPoint x="440" y="660" as="sourcePoint" />
            <mxPoint x="520" y="640" as="targetPoint" />
          </mxGeometry>
        </mxCell>
      </root>
    </mxGraphModel>
  </diagram>
  <diagram id="Nyn62-PLnjxejgaqgF4g" name="Page-3">
    <mxGraphModel dx="691" dy="339" grid="1" gridSize="10" guides="1" tooltips="1" connect="1" arrows="1" fold="1" page="1" pageScale="1" pageWidth="827" pageHeight="1169" math="1" shadow="0">
      <root>
        <mxCell id="0" />
        <mxCell id="1" parent="0" />
        <mxCell id="E7jXrqfF2I50U7RlK1zm-5" value="" style="edgeStyle=orthogonalEdgeStyle;rounded=0;orthogonalLoop=1;jettySize=auto;html=1;" edge="1" parent="1" target="E7jXrqfF2I50U7RlK1zm-4">
          <mxGeometry relative="1" as="geometry">
            <mxPoint x="400" y="160" as="sourcePoint" />
          </mxGeometry>
        </mxCell>
        <mxCell id="E7jXrqfF2I50U7RlK1zm-12" style="edgeStyle=orthogonalEdgeStyle;rounded=0;orthogonalLoop=1;jettySize=auto;html=1;" edge="1" parent="1">
          <mxGeometry relative="1" as="geometry">
            <mxPoint x="560" y="120" as="targetPoint" />
            <mxPoint x="480" y="120" as="sourcePoint" />
          </mxGeometry>
        </mxCell>
        <mxCell id="E7jXrqfF2I50U7RlK1zm-4" value="&lt;p class=&quot;MsoNormal&quot;&gt;&lt;span style=&quot;font-family:&amp;quot;Times New Roman&amp;quot;,serif;&lt;br/&gt;mso-ansi-language:AZ-LATIN&quot; lang=&quot;AZ-LATIN&quot;&gt;&lt;i&gt;Dövr&lt;br&gt;&lt;/i&gt;&lt;/span&gt;&lt;/p&gt;" style="rounded=0;whiteSpace=wrap;html=1;" vertex="1" parent="1">
          <mxGeometry x="340" y="200" width="120" height="60" as="geometry" />
        </mxCell>
        <mxCell id="E7jXrqfF2I50U7RlK1zm-7" value="" style="endArrow=none;html=1;rounded=0;exitX=0.5;exitY=1;exitDx=0;exitDy=0;" edge="1" parent="1" source="E7jXrqfF2I50U7RlK1zm-4">
          <mxGeometry width="50" height="50" relative="1" as="geometry">
            <mxPoint x="390" y="290" as="sourcePoint" />
            <mxPoint x="400" y="320" as="targetPoint" />
          </mxGeometry>
        </mxCell>
        <mxCell id="E7jXrqfF2I50U7RlK1zm-8" value="" style="endArrow=none;html=1;rounded=0;" edge="1" parent="1">
          <mxGeometry width="50" height="50" relative="1" as="geometry">
            <mxPoint x="400" y="320" as="sourcePoint" />
            <mxPoint x="280" y="320" as="targetPoint" />
          </mxGeometry>
        </mxCell>
        <mxCell id="E7jXrqfF2I50U7RlK1zm-9" value="" style="endArrow=none;html=1;rounded=0;" edge="1" parent="1">
          <mxGeometry width="50" height="50" relative="1" as="geometry">
            <mxPoint x="280" y="320" as="sourcePoint" />
            <mxPoint x="280" y="60" as="targetPoint" />
          </mxGeometry>
        </mxCell>
        <mxCell id="E7jXrqfF2I50U7RlK1zm-10" value="" style="endArrow=classic;html=1;rounded=0;entryX=0;entryY=0.5;entryDx=0;entryDy=0;" edge="1" parent="1">
          <mxGeometry width="50" height="50" relative="1" as="geometry">
            <mxPoint x="280" y="60" as="sourcePoint" />
            <mxPoint x="400" y="60" as="targetPoint" />
          </mxGeometry>
        </mxCell>
        <mxCell id="E7jXrqfF2I50U7RlK1zm-11" value="" style="endArrow=classic;html=1;rounded=0;entryX=0.5;entryY=0;entryDx=0;entryDy=0;" edge="1" parent="1">
          <mxGeometry width="50" height="50" relative="1" as="geometry">
            <mxPoint x="400" y="40" as="sourcePoint" />
            <mxPoint x="400" y="80" as="targetPoint" />
          </mxGeometry>
        </mxCell>
        <mxCell id="E7jXrqfF2I50U7RlK1zm-13" value="&lt;p class=&quot;MsoNormal&quot;&gt;&lt;span style=&quot;font-size:10.0pt;line-height:&lt;br/&gt;115%;font-family:&amp;quot;Times New Roman&amp;quot;,serif;mso-ansi-language:AZ-LATIN&quot; lang=&quot;AZ-LATIN&quot;&gt;&lt;i&gt;Dövrdən&lt;br&gt;çıxış&lt;/i&gt;&lt;/span&gt;&lt;span style=&quot;font-size:10.0pt;line-height:115%;mso-ansi-language:AZ-LATIN&quot; lang=&quot;AZ-LATIN&quot;&gt;&lt;/span&gt;&lt;/p&gt;" style="text;html=1;align=center;verticalAlign=middle;whiteSpace=wrap;rounded=0;" vertex="1" parent="1">
          <mxGeometry x="490" y="80" width="60" height="30" as="geometry" />
        </mxCell>
        <mxCell id="E7jXrqfF2I50U7RlK1zm-14" value="&lt;i&gt;Şərt&lt;/i&gt;" style="rhombus;whiteSpace=wrap;html=1;" vertex="1" parent="1">
          <mxGeometry x="320" y="80" width="160" height="80" as="geometry" />
        </mxCell>
        <mxCell id="TPwIeVX0acJtBmVkfWiH-1" value="Yox" style="text;html=1;align=center;verticalAlign=middle;whiteSpace=wrap;rounded=0;fontStyle=2" vertex="1" parent="1">
          <mxGeometry x="480" y="130" width="60" height="30" as="geometry" />
        </mxCell>
        <mxCell id="fXdX-iyRhL1QtYTGmC1E-1" value="Hə" style="text;html=1;align=center;verticalAlign=middle;whiteSpace=wrap;rounded=0;fontStyle=2" vertex="1" parent="1">
          <mxGeometry x="330" y="160" width="60" height="30" as="geometry" />
        </mxCell>
      </root>
    </mxGraphModel>
  </diagram>
  <diagram name="Page-4" id="Su6D2r5gnKEuqEiopxvB">
    <mxGraphModel dx="1036" dy="508" grid="1" gridSize="10" guides="1" tooltips="1" connect="1" arrows="1" fold="1" page="1" pageScale="1" pageWidth="827" pageHeight="1169" math="1" shadow="0">
      <root>
        <mxCell id="DL39utmGmKI5OoqvyY3I-0" />
        <mxCell id="DL39utmGmKI5OoqvyY3I-1" parent="DL39utmGmKI5OoqvyY3I-0" />
        <mxCell id="JvhUps6NapZi5kCEXFkI-0" value="" style="edgeStyle=orthogonalEdgeStyle;rounded=0;orthogonalLoop=1;jettySize=auto;html=1;" edge="1" parent="DL39utmGmKI5OoqvyY3I-1" source="DL39utmGmKI5OoqvyY3I-3" target="DL39utmGmKI5OoqvyY3I-5">
          <mxGeometry relative="1" as="geometry" />
        </mxCell>
        <mxCell id="DL39utmGmKI5OoqvyY3I-3" value="operator" style="rounded=0;whiteSpace=wrap;html=1;fontStyle=2" vertex="1" parent="DL39utmGmKI5OoqvyY3I-1">
          <mxGeometry x="340" y="730" width="120" height="60" as="geometry" />
        </mxCell>
        <mxCell id="DL39utmGmKI5OoqvyY3I-5" value="&lt;p class=&quot;MsoNormal&quot;&gt;&lt;span style=&quot;font-size:10.0pt;mso-bidi-font-size:&lt;br/&gt;11.0pt;line-height:115%;font-family:&amp;quot;Times New Roman&amp;quot;,serif;mso-ansi-language:&lt;br/&gt;AZ-LATIN&quot; lang=&quot;AZ-LATIN&quot;&gt;&lt;i&gt;Şərt&lt;/i&gt;&lt;/span&gt;&lt;span style=&quot;font-size:10.0pt;mso-bidi-font-size:&lt;br/&gt;11.0pt;line-height:115%;font-family:&amp;quot;Arial&amp;quot;,sans-serif;mso-ansi-language:AZ-LATIN&quot; lang=&quot;AZ-LATIN&quot;&gt;&lt;/span&gt;&lt;/p&gt;" style="rhombus;whiteSpace=wrap;html=1;" vertex="1" parent="DL39utmGmKI5OoqvyY3I-1">
          <mxGeometry x="320" y="840" width="160" height="80" as="geometry" />
        </mxCell>
        <mxCell id="DL39utmGmKI5OoqvyY3I-6" value="Hə" style="text;html=1;align=center;verticalAlign=middle;whiteSpace=wrap;rounded=0;fontStyle=2" vertex="1" parent="DL39utmGmKI5OoqvyY3I-1">
          <mxGeometry x="400" y="920" width="60" height="30" as="geometry" />
        </mxCell>
        <mxCell id="DL39utmGmKI5OoqvyY3I-7" value="Yox" style="text;html=1;align=center;verticalAlign=middle;whiteSpace=wrap;rounded=0;fontStyle=2" vertex="1" parent="DL39utmGmKI5OoqvyY3I-1">
          <mxGeometry x="280" y="850" width="60" height="30" as="geometry" />
        </mxCell>
        <mxCell id="JvhUps6NapZi5kCEXFkI-1" value="" style="endArrow=classic;html=1;rounded=0;entryX=0.5;entryY=0;entryDx=0;entryDy=0;" edge="1" parent="DL39utmGmKI5OoqvyY3I-1" target="DL39utmGmKI5OoqvyY3I-3">
          <mxGeometry width="50" height="50" relative="1" as="geometry">
            <mxPoint x="400" y="680" as="sourcePoint" />
            <mxPoint x="440" y="760" as="targetPoint" />
          </mxGeometry>
        </mxCell>
        <mxCell id="JvhUps6NapZi5kCEXFkI-2" value="" style="endArrow=classic;html=1;rounded=0;entryX=0.5;entryY=0;entryDx=0;entryDy=0;" edge="1" parent="DL39utmGmKI5OoqvyY3I-1">
          <mxGeometry width="50" height="50" relative="1" as="geometry">
            <mxPoint x="399.77" y="920" as="sourcePoint" />
            <mxPoint x="399.77" y="970" as="targetPoint" />
          </mxGeometry>
        </mxCell>
        <mxCell id="JvhUps6NapZi5kCEXFkI-3" value="" style="endArrow=none;html=1;rounded=0;entryX=0;entryY=0.5;entryDx=0;entryDy=0;" edge="1" parent="DL39utmGmKI5OoqvyY3I-1" target="DL39utmGmKI5OoqvyY3I-5">
          <mxGeometry width="50" height="50" relative="1" as="geometry">
            <mxPoint x="280" y="880" as="sourcePoint" />
            <mxPoint x="430" y="810" as="targetPoint" />
          </mxGeometry>
        </mxCell>
        <mxCell id="JvhUps6NapZi5kCEXFkI-4" value="" style="endArrow=none;html=1;rounded=0;" edge="1" parent="DL39utmGmKI5OoqvyY3I-1">
          <mxGeometry width="50" height="50" relative="1" as="geometry">
            <mxPoint x="280" y="880" as="sourcePoint" />
            <mxPoint x="280" y="700" as="targetPoint" />
          </mxGeometry>
        </mxCell>
        <mxCell id="JvhUps6NapZi5kCEXFkI-5" value="" style="endArrow=classic;html=1;rounded=0;entryX=0;entryY=0.5;entryDx=0;entryDy=0;" edge="1" parent="DL39utmGmKI5OoqvyY3I-1">
          <mxGeometry width="50" height="50" relative="1" as="geometry">
            <mxPoint x="280" y="700" as="sourcePoint" />
            <mxPoint x="400" y="700" as="targetPoint" />
            <Array as="points">
              <mxPoint x="360" y="700" />
              <mxPoint x="370" y="700" />
            </Array>
          </mxGeometry>
        </mxCell>
      </root>
    </mxGraphModel>
  </diagram>
  <diagram name="Page-5" id="Z6bPRQYxuzFzXFYTwxDg">
    <mxGraphModel dx="1151" dy="564" grid="1" gridSize="10" guides="1" tooltips="1" connect="1" arrows="1" fold="1" page="1" pageScale="1" pageWidth="827" pageHeight="1169" math="1" shadow="0">
      <root>
        <mxCell id="FAJUeIFjBF-fDclB00fI-0" />
        <mxCell id="FAJUeIFjBF-fDclB00fI-1" parent="FAJUeIFjBF-fDclB00fI-0" />
        <mxCell id="FAJUeIFjBF-fDclB00fI-2" value="" style="edgeStyle=orthogonalEdgeStyle;rounded=0;orthogonalLoop=1;jettySize=auto;html=1;" edge="1" parent="FAJUeIFjBF-fDclB00fI-1" source="FAJUeIFjBF-fDclB00fI-3" target="FAJUeIFjBF-fDclB00fI-7">
          <mxGeometry relative="1" as="geometry" />
        </mxCell>
        <mxCell id="FAJUeIFjBF-fDclB00fI-3" value="$$Başlanğıc$$" style="ellipse;whiteSpace=wrap;html=1;" vertex="1" parent="FAJUeIFjBF-fDclB00fI-1">
          <mxGeometry x="340" y="10" width="120" height="80" as="geometry" />
        </mxCell>
        <mxCell id="FAJUeIFjBF-fDclB00fI-6" value="" style="edgeStyle=orthogonalEdgeStyle;rounded=0;orthogonalLoop=1;jettySize=auto;html=1;" edge="1" parent="FAJUeIFjBF-fDclB00fI-1" source="FAJUeIFjBF-fDclB00fI-7">
          <mxGeometry relative="1" as="geometry">
            <mxPoint x="400" y="220" as="targetPoint" />
          </mxGeometry>
        </mxCell>
        <mxCell id="FAJUeIFjBF-fDclB00fI-7" value="&lt;p class=&quot;MsoNormal&quot;&gt;&lt;span style=&quot;font-size: 12pt; line-height: 115%;&quot;&gt;$$x,\epsilon$$&lt;/span&gt;&lt;/p&gt;" style="shape=parallelogram;perimeter=parallelogramPerimeter;whiteSpace=wrap;html=1;fixedSize=1;fontStyle=2" vertex="1" parent="FAJUeIFjBF-fDclB00fI-1">
          <mxGeometry x="305" y="110" width="190" height="80" as="geometry" />
        </mxCell>
        <mxCell id="FAJUeIFjBF-fDclB00fI-10" value="$$Son$$" style="ellipse;whiteSpace=wrap;html=1;" vertex="1" parent="FAJUeIFjBF-fDclB00fI-1">
          <mxGeometry x="340" y="800" width="120" height="80" as="geometry" />
        </mxCell>
        <mxCell id="zGIP4oNdFAXy1qSalCxL-1" style="edgeStyle=orthogonalEdgeStyle;rounded=0;orthogonalLoop=1;jettySize=auto;html=1;" edge="1" parent="FAJUeIFjBF-fDclB00fI-1" source="zGIP4oNdFAXy1qSalCxL-0">
          <mxGeometry relative="1" as="geometry">
            <mxPoint x="400" y="320" as="targetPoint" />
          </mxGeometry>
        </mxCell>
        <mxCell id="zGIP4oNdFAXy1qSalCxL-0" value="&lt;p class=&quot;MsoNormal&quot;&gt;&lt;span style=&quot;font-size:12.0pt;line-height:115%;font-family:&lt;br/&gt;&amp;quot;Times New Roman&amp;quot;,serif;mso-bidi-theme-font:minor-bidi;mso-ansi-language:EN-US&quot;&gt;$$y=x/2$$&lt;/span&gt;&lt;/p&gt;" style="rounded=0;whiteSpace=wrap;html=1;fontStyle=2" vertex="1" parent="FAJUeIFjBF-fDclB00fI-1">
          <mxGeometry x="340" y="220" width="120" height="60" as="geometry" />
        </mxCell>
        <mxCell id="zGIP4oNdFAXy1qSalCxL-3" style="edgeStyle=orthogonalEdgeStyle;rounded=0;orthogonalLoop=1;jettySize=auto;html=1;" edge="1" parent="FAJUeIFjBF-fDclB00fI-1" source="zGIP4oNdFAXy1qSalCxL-2">
          <mxGeometry relative="1" as="geometry">
            <mxPoint x="400" y="420.0000000000001" as="targetPoint" />
          </mxGeometry>
        </mxCell>
        <mxCell id="zGIP4oNdFAXy1qSalCxL-2" value="&lt;p class=&quot;MsoNormal&quot;&gt;&lt;span style=&quot;font-size:12.0pt;line-height:115%;font-family:&lt;br/&gt;&amp;quot;Times New Roman&amp;quot;,serif;mso-bidi-theme-font:minor-bidi;mso-ansi-language:EN-US&quot;&gt;&lt;i&gt;$$u=(y+x/y)/2$$&lt;/i&gt;&lt;/span&gt;&lt;/p&gt;" style="rounded=0;whiteSpace=wrap;html=1;" vertex="1" parent="FAJUeIFjBF-fDclB00fI-1">
          <mxGeometry x="320" y="320" width="160" height="60" as="geometry" />
        </mxCell>
        <mxCell id="zGIP4oNdFAXy1qSalCxL-5" style="edgeStyle=orthogonalEdgeStyle;rounded=0;orthogonalLoop=1;jettySize=auto;html=1;" edge="1" parent="FAJUeIFjBF-fDclB00fI-1" source="zGIP4oNdFAXy1qSalCxL-4">
          <mxGeometry relative="1" as="geometry">
            <mxPoint x="400" y="540" as="targetPoint" />
          </mxGeometry>
        </mxCell>
        <mxCell id="zGIP4oNdFAXy1qSalCxL-4" value="$$\left| u-y \right| &amp;lt; \epsilon$$" style="rhombus;whiteSpace=wrap;html=1;" vertex="1" parent="FAJUeIFjBF-fDclB00fI-1">
          <mxGeometry x="320" y="420" width="160" height="80" as="geometry" />
        </mxCell>
        <mxCell id="zGIP4oNdFAXy1qSalCxL-6" value="$$y=u$$" style="rounded=0;whiteSpace=wrap;html=1;" vertex="1" parent="FAJUeIFjBF-fDclB00fI-1">
          <mxGeometry x="340" y="540" width="120" height="60" as="geometry" />
        </mxCell>
        <mxCell id="zGIP4oNdFAXy1qSalCxL-8" value="" style="endArrow=none;html=1;rounded=0;" edge="1" parent="FAJUeIFjBF-fDclB00fI-1">
          <mxGeometry width="50" height="50" relative="1" as="geometry">
            <mxPoint x="270" y="570" as="sourcePoint" />
            <mxPoint x="340" y="570" as="targetPoint" />
          </mxGeometry>
        </mxCell>
        <mxCell id="zGIP4oNdFAXy1qSalCxL-9" value="" style="endArrow=none;html=1;rounded=0;" edge="1" parent="FAJUeIFjBF-fDclB00fI-1">
          <mxGeometry width="50" height="50" relative="1" as="geometry">
            <mxPoint x="270" y="570" as="sourcePoint" />
            <mxPoint x="270" y="350" as="targetPoint" />
          </mxGeometry>
        </mxCell>
        <mxCell id="zGIP4oNdFAXy1qSalCxL-10" value="" style="endArrow=classic;html=1;rounded=0;entryX=0;entryY=0.5;entryDx=0;entryDy=0;" edge="1" parent="FAJUeIFjBF-fDclB00fI-1" target="zGIP4oNdFAXy1qSalCxL-2">
          <mxGeometry width="50" height="50" relative="1" as="geometry">
            <mxPoint x="270" y="350" as="sourcePoint" />
            <mxPoint x="390" y="350" as="targetPoint" />
          </mxGeometry>
        </mxCell>
        <mxCell id="tN_7z6vEQqug8WjvAs2r-0" value="Yox" style="text;html=1;align=center;verticalAlign=middle;whiteSpace=wrap;rounded=0;fontStyle=2" vertex="1" parent="FAJUeIFjBF-fDclB00fI-1">
          <mxGeometry x="340" y="500" width="60" height="30" as="geometry" />
        </mxCell>
        <mxCell id="3jJnT2aSK7jUvn6WoDeE-1" value="" style="edgeStyle=orthogonalEdgeStyle;rounded=0;orthogonalLoop=1;jettySize=auto;html=1;" edge="1" parent="FAJUeIFjBF-fDclB00fI-1" source="tN_7z6vEQqug8WjvAs2r-1" target="FAJUeIFjBF-fDclB00fI-10">
          <mxGeometry relative="1" as="geometry" />
        </mxCell>
        <mxCell id="tN_7z6vEQqug8WjvAs2r-1" value="$$x,u$$" style="shape=document;whiteSpace=wrap;html=1;boundedLbl=1;rounded=0;" vertex="1" parent="FAJUeIFjBF-fDclB00fI-1">
          <mxGeometry x="340" y="680" width="120" height="80" as="geometry" />
        </mxCell>
        <mxCell id="tN_7z6vEQqug8WjvAs2r-4" value="" style="endArrow=none;html=1;rounded=0;entryX=1;entryY=0.5;entryDx=0;entryDy=0;" edge="1" parent="FAJUeIFjBF-fDclB00fI-1" target="zGIP4oNdFAXy1qSalCxL-4">
          <mxGeometry width="50" height="50" relative="1" as="geometry">
            <mxPoint x="520" y="460" as="sourcePoint" />
            <mxPoint x="390" y="630" as="targetPoint" />
          </mxGeometry>
        </mxCell>
        <mxCell id="tN_7z6vEQqug8WjvAs2r-5" value="" style="endArrow=none;html=1;rounded=0;" edge="1" parent="FAJUeIFjBF-fDclB00fI-1">
          <mxGeometry width="50" height="50" relative="1" as="geometry">
            <mxPoint x="520" y="640" as="sourcePoint" />
            <mxPoint x="520" y="460" as="targetPoint" />
          </mxGeometry>
        </mxCell>
        <mxCell id="tN_7z6vEQqug8WjvAs2r-6" value="" style="endArrow=classic;html=1;rounded=0;entryX=0.5;entryY=0;entryDx=0;entryDy=0;" edge="1" parent="FAJUeIFjBF-fDclB00fI-1" target="tN_7z6vEQqug8WjvAs2r-1">
          <mxGeometry width="50" height="50" relative="1" as="geometry">
            <mxPoint x="400" y="640" as="sourcePoint" />
            <mxPoint x="390" y="630" as="targetPoint" />
          </mxGeometry>
        </mxCell>
        <mxCell id="tN_7z6vEQqug8WjvAs2r-7" value="" style="endArrow=none;html=1;rounded=0;" edge="1" parent="FAJUeIFjBF-fDclB00fI-1">
          <mxGeometry width="50" height="50" relative="1" as="geometry">
            <mxPoint x="400" y="640" as="sourcePoint" />
            <mxPoint x="520" y="640" as="targetPoint" />
          </mxGeometry>
        </mxCell>
        <mxCell id="3jJnT2aSK7jUvn6WoDeE-0" value="Hə" style="text;html=1;align=center;verticalAlign=middle;whiteSpace=wrap;rounded=0;fontStyle=2" vertex="1" parent="FAJUeIFjBF-fDclB00fI-1">
          <mxGeometry x="470" y="430" width="60" height="30" as="geometry" />
        </mxCell>
      </root>
    </mxGraphModel>
  </diagram>
</mxfile>
